<svg
    xmlns="http://www.w3.org/2000/svg"
    viewBox="0 0 512 512"
    id="vector">
    <path
        id="path"
        d="M 128 68.143 L 316 68.143 L 316 426.357 L 128 426.357 Z"
        fill="#26a699"/>
    <path
        id="path_1"
        d="M 256 0 L 128 68.143 L 256 136.286 L 384 136.286 L 384 68.143 Z"
        fill="#26a69999"/>
    <path
        id="path_2"
        d="M 324 136.286 L 384 512 L 512 443.857 L 512 136.286 Z"
        fill="#2633a6"/>
    <path
        id="path_3"
        d="M 256 136.286 L 256 272.572 L 206 358.214 L 256 443.857 L 384 512 L 384 136.286 Z"
        fill="#5960a3"/>
    <path
        id="path_4"
        d="M 512 136.286 L 384 68.143 L 256 136.286 L 384 204.428 Z"
        fill="#2633a633"/>
    <path
        id="path_5"
        d="M 68 272.572 L 128 512 L 256 443.857 L 256 272.572 Z"
        fill="#ffffff"
        fill-opacity="0.7"/>
    <path
        id="path_6"
        d="M 0 272.572 L 0 443.857 L 128 512 L 128 272.572 Z"
        fill="#000000"/>
    <path
        id="path_7"
        d="M 128 204.428 L 0 272.572 L 128 340.714 L 256 272.572 Z"
        fill="#5a5a5a"/>
</svg>
