<svg
    xmlns="http://www.w3.org/2000/svg"
    viewBox="0 0 512 512"
    id="vector">
    <path
        id="path"
        d="M 256 512 L 105 512 C 47.103 512 0 464.897 0 407 L 0 256 L 30 256 L 30 407 C 30 448.355 63.645 482 105 482 L 256 482 L 256 512 Z"
        fill="#26a69999"/>
    <path
        id="path_1"
        d="M 211 452 L 105 452 C 80.187 452 60 431.813 60 407 L 60 301 C 60 276.187 80.187 256 105 256 L 141.213 256 L 256 370.786 L 256 407 C 256 431.813 235.813 452 211 452 Z"
        fill="#26a699"/>
    <path
        id="path_2"
        d="M 512 256 L 482 256 L 482 105 C 482 63.645 448.355 30 407 30 L 256 30 L 256 0 L 407 0 C 464.897 0 512 47.103 512 105 L 512 256 Z"
        fill="#26a69999"/>
    <path
        id="path_3"
        d="M 407 256 L 370.787 256 L 256 141.214 L 256 105 C 256 80.187 276.187 60 301 60 L 407 60 C 431.813 60 452 80.187 452 105 L 452 211 C 452 235.813 431.813 256 407 256 Z"
        fill="#26a699"/>
    <path
        id="path_4"
        d="M 347 120 L 256 120 L 196 256 L 256 392 L 347 392 C 371.813 392 392 371.813 392 347 L 392 165 C 392 140.187 371.813 120 347 120 Z"
        fill="#26a69999"/>
    <path
        id="path_5"
        d="M 165 120 C 140.187 120 120 140.187 120 165 L 120 347 C 120 371.813 140.187 392 165 392 L 256 392 L 256 120 L 165 120 Z"
        fill="#26a69999"/>
</svg>
